<svg width="241" height="251" viewBox="0 0 241 251" fill="none" xmlns="http://www.w3.org/2000/svg">
<rect width="241" height="251" fill="#EF771A" fill-opacity="0.1"/>
<path d="M155.417 151.842L154.447 184.5H82.4219C82.4219 174.692 83.2033 167.093 84.7662 161.704C86.3829 156.315 88.9966 151.088 92.6073 146.022C96.2718 140.956 101.364 135.406 107.885 129.37C116.454 121.502 122.085 115.736 124.78 112.071C127.528 108.353 128.903 104.176 128.903 99.5414C128.903 96.0924 127.879 93.2631 125.831 91.0536C123.783 88.7902 121.223 87.6585 118.151 87.6585C113.679 87.6585 110.364 89.5177 108.209 93.2362C106.107 96.9007 104.894 102.91 104.571 111.263L83.9578 110.293C83.9578 99.4606 85.5745 91.2961 88.808 85.7993C92.0414 80.3024 96.4335 76.3145 101.984 73.8355C107.535 71.3566 113.571 70.1171 120.091 70.1171C130.816 70.1171 139.223 73.0811 145.312 79.0091C151.456 84.937 154.528 92.32 154.528 101.158C154.528 105.9 153.585 110.293 151.698 114.334C149.866 118.322 147.522 121.69 144.666 124.439C141.863 127.133 136.878 131.04 129.711 136.16C118.933 143.866 112.17 149.983 109.421 154.51C106.673 159.037 105.056 163.025 104.571 166.474H137.31V151.842H155.417Z" fill="#EF771A"/>
</svg>
